<svg width="43" height="36" viewBox="0 0 43 36" fill="none" xmlns="http://www.w3.org/2000/svg">
<path id="Vector" d="M21.5 18.2014L3.725 6.13351V4.09692L21.2207 15.8821L21.4996 16.07L21.7788 15.8825L39.8388 3.75337L41.2013 2.83829H39.56H3.49375H1.85651L2.725 3.42331V5.45458V6.39839V32.2701V32.7701H3.225H39.775H40.275V32.2701V6.39839V5.45458L39.4942 5.98472L21.5 18.2014ZM3.225 35.1084C2.51212 35.1084 1.8862 34.8383 1.3271 34.2596C0.767886 33.6807 0.5 33.0247 0.5 32.2701V3.33829C0.5 2.58373 0.767886 1.92775 1.3271 1.34889C1.8862 0.770148 2.51212 0.5 3.225 0.5H39.775C40.4879 0.5 41.1138 0.770147 41.6729 1.34889C42.2321 1.92775 42.5 2.58373 42.5 3.33829V32.2701C42.5 33.0247 42.2321 33.6807 41.6729 34.2596C41.1138 34.8383 40.4879 35.1084 39.775 35.1084H3.225Z" fill="#404040" stroke="#10202E"/>
</svg>
