<svg width="27" height="47" viewBox="0 0 27 47" fill="none" xmlns="http://www.w3.org/2000/svg">
<path id="Vector" d="M2.89286 41.5133H2.39286V42.0133V43.6088V44.1088H2.89286H24.1071H24.6071V43.6088V42.0133V41.5133H24.1071H2.89286ZM2.39286 38.8224V39.3224H2.89286H24.1071H24.6071V38.8224V7.97721V7.47721H24.1071H2.89286H2.39286V7.97721V38.8224ZM2.39286 4.78633V5.28633H2.89286H24.1071H24.6071V4.78633V3.19089V2.69089H24.1071H2.89286H2.39286V3.19089V4.78633ZM2.89286 46.2997C2.27985 46.2997 1.73437 46.0537 1.23829 45.5066C0.74196 44.9591 0.5 44.3338 0.5 43.6088V3.19089C0.5 2.46582 0.741961 1.84055 1.23829 1.2931C1.73437 0.74591 2.27985 0.5 2.89286 0.5H24.1071C24.7201 0.5 25.2656 0.745909 25.7617 1.2931C26.258 1.84056 26.5 2.46582 26.5 3.19089V43.6088C26.5 44.3338 26.258 44.9591 25.7617 45.5066C25.2656 46.0537 24.7201 46.2997 24.1071 46.2997H2.89286Z" fill="#404040" stroke="#10202E"/>
</svg>
