<svg width="34" height="42" viewBox="0 0 34 42" fill="none" xmlns="http://www.w3.org/2000/svg">
<g id="Group 1">
<path id="Vector" d="M16.813 37.6292L17.1498 37.9427L17.4902 37.6331C22.0897 33.4486 25.5092 29.634 27.7296 26.1898C29.9426 22.757 31.0912 19.6721 31.0912 16.9519C31.0912 12.7689 29.7481 9.31108 27.0415 6.62244C24.344 3.94276 21.0378 2.60096 17.1537 2.60096C13.2696 2.60096 9.96341 3.94276 7.26586 6.62244C4.5593 9.31108 3.2162 12.7689 3.2162 16.9519C3.2162 19.6753 4.39318 22.7618 6.65825 26.1943C8.92771 29.6334 12.3178 33.4452 16.813 37.6292ZM17.1537 40.6886C11.789 36.0907 7.78974 31.8318 5.13813 27.9127C2.43242 23.9137 1.11523 20.2638 1.11523 16.9519C1.11523 11.9014 2.73439 7.92525 5.9416 4.96731C9.1776 1.9828 12.9081 0.5 17.1537 0.5C21.3993 0.5 25.1298 1.9828 28.3658 4.96731C31.573 7.92525 33.1922 11.9014 33.1922 16.9519C33.1922 20.2638 31.875 23.9137 29.1693 27.9127C26.5177 31.8318 22.5184 36.0907 17.1537 40.6886Z" fill="#404040" stroke="#10202E"/>
<path id="Ellipse 1" d="M17.1537 20.3462C20.17 20.3462 22.6152 17.901 22.6152 14.8846C22.6152 11.8683 20.17 9.4231 17.1537 9.4231C14.1374 9.4231 11.6922 11.8683 11.6922 14.8846C11.6922 17.901 14.1374 20.3462 17.1537 20.3462Z" fill="#404040" stroke="#10202E"/>
</g>
</svg>
